<?xml version="1.0" standalone="no"?>
<!DOCTYPE svg PUBLIC "-//W3C//DTD SVG 20010904//EN"
 "http://www.w3.org/TR/2001/REC-SVG-20010904/DTD/svg10.dtd">
<svg version="1.0" xmlns="http://www.w3.org/2000/svg"
 width="608.000000pt" height="71.000000pt" viewBox="0 0 608.000000 71.000000"
 preserveAspectRatio="xMidYMid meet">

<g transform="translate(0.000000,71.000000) scale(0.100000,-0.100000)"
fill="#000000" stroke="none">
<path d="M1513 680 c-97 -20 -177 -90 -207 -178 -21 -61 -21 -223 0 -285 22
-64 82 -129 146 -157 44 -20 70 -24 158 -24 88 0 114 4 158 24 71 31 125 93
146 168 20 74 21 203 0 271 -19 67 -78 132 -143 160 -56 24 -192 35 -258 21z
m177 -178 c90 -48 95 -212 8 -275 -61 -45 -166 -27 -212 36 -27 37 -29 146 -4
193 33 60 137 83 208 46z"/>
<path d="M2873 680 c-149 -31 -214 -119 -221 -296 -5 -128 12 -193 67 -256 62
-69 122 -92 252 -92 97 0 110 2 165 29 106 53 154 147 154 301 0 145 -57 249
-159 293 -56 24 -192 35 -258 21z m173 -176 c47 -23 68 -65 68 -139 0 -109
-46 -160 -144 -160 -95 0 -150 58 -150 160 0 65 26 115 70 137 44 22 112 23
156 2z"/>
<path d="M0 355 l0 -315 85 0 85 0 0 94 0 93 133 5 c168 7 214 25 254 101 20
39 28 153 14 205 -15 55 -63 109 -109 122 -20 5 -133 10 -249 10 l-213 0 0
-315z m378 149 c15 -10 22 -25 22 -49 0 -56 -18 -65 -131 -65 l-99 0 0 65 0
65 93 0 c68 0 99 -4 115 -16z"/>
<path d="M640 355 l0 -315 85 0 85 0 0 100 0 100 95 0 c97 0 139 -11 150 -39
4 -9 9 -49 12 -88 l6 -73 81 0 81 0 -3 102 c-4 121 -19 161 -70 187 l-36 18
33 17 c70 37 93 173 40 247 -38 54 -64 59 -324 59 l-235 0 0 -315z m395 151
c25 -18 25 -74 0 -92 -13 -10 -51 -14 -122 -14 l-103 0 0 60 0 60 103 0 c71 0
109 -4 122 -14z"/>
<path d="M2000 355 l0 -315 85 0 85 0 0 100 0 100 99 0 c133 0 144 -9 151
-117 l5 -78 85 -3 85 -3 -3 103 c-4 120 -18 156 -69 185 l-36 21 30 15 c50 26
68 63 68 142 0 56 -4 76 -22 101 -43 60 -65 64 -327 64 l-236 0 0 -315z m391
155 c14 -8 19 -21 19 -50 0 -53 -17 -60 -139 -60 l-101 0 0 60 0 60 101 0 c55
0 109 -5 120 -10z"/>
<path d="M3360 355 l0 -315 85 0 85 0 0 140 c0 77 3 140 8 140 4 -1 40 -50 81
-110 40 -60 85 -123 100 -140 l26 -31 101 3 101 3 -123 170 c-68 94 -123 173
-121 177 1 4 50 66 110 137 59 71 107 132 107 135 0 3 -43 6 -95 6 l-94 0 -98
-122 -98 -122 -3 122 -3 122 -84 0 -85 0 0 -315z"/>
</g>
</svg>
